<svg xmlns="http://www.w3.org/2000/svg" fill="none" viewBox="0 0 164 32"><path fill="#1976d2" fill-rule="evenodd" d="m55.6 6.3-1.6 9v.7c0 1.3 1 2.3 2.5 2.3 1.3 0 2.6-.8 2.8-2.4L61 6.3h6.5l-3 17c-1 5.7-5 8.7-10 8.7-3.4 0-7-1.3-9.5-4.2l3.7-4.4.8.7c1.5 1.2 3 2.1 5 2.1 1.8 0 3.1-.8 3.6-3v-.7a7.5 7.5 0 0 1-4.3 1.3c-4 0-6.5-2.8-6.5-6.3l.2-2 1.6-9.2h6.5zm-33 0c5.3 0 8.5 3.8 8.5 8.1 0 1.4-.4 2.8-.8 3.8H18.5c.6 1.5 2 2.1 4 2.1a10 10 0 0 0 5-1.4l2 4.3a13 13 0 0 1-7.6 2.5c-6 0-9.9-3.9-9.9-9.1 0-5.7 4.7-10.3 10.6-10.3zM9.6 0l-1 6.7-1 5.4-.9 5.2v.8c0 1.6 1.3 2 3.6 2h1.5l-1 5.4-2.3.2c-3.6 0-8.4-1-8.4-6.4 0-.6 0-1.3.2-2l1-5.2L3.1 0h6.5zM43 0l-1 6.3h4.9l-1 5.3h-5l-1 5.7v.8c0 1.6 1.3 2 3.7 2H45l-1 5.4-2.3.2c-3.6 0-8.4-1-8.4-6.4l.1-2 1-5.7h-2.8l.9-5.3h2.9L36.6 0H43zM22.3 11.3c-1.6 0-3 1-3.6 2.8h6.5c0-1.8-1.4-2.8-3-2.8z" clip-rule="evenodd"/><path fill="#fcd31b" fill-rule="evenodd" d="M138.8 6.3c4.9 0 8 4 8 8.7 0 4.5-3 10.7-10 10.7-2.5 0-4.3-.8-5.3-2.1L130 32h-6.4L128 6.7h5.9l-.3 1.8c1.2-1.5 3-2.2 5.2-2.2zm-23.9 0c5.6 0 9.8 4 9.8 9.3 0 5.8-5 10-10.8 10-5.6 0-9.7-4-9.7-9.2 0-5.7 5-10 10.7-10zm41.2 0c3.1 0 5.6 1.2 7.3 3.3l-3.6 3.6a5.3 5.3 0 0 0-3.6-1.9c-.7 0-1 .3-1 .8s.3.7 1 1l1.6.6c3 1.2 5 2.8 5 5.5s-2 6.5-7.6 6.5a9.6 9.6 0 0 1-8.4-4.3l3.8-3.5c1.4 1.6 2.8 2.8 4.7 2.8.8 0 1.5-.3 1.5-.9 0-.4-.3-.7-1-1l-1.7-.6c-3-1.2-5-2.8-5-5.9 0-3.7 3-6 7-6zM93.6.1 92 8.2a7 7 0 0 1 4.4-1.4c3.9 0 6.5 2.5 6.5 6.3l-.1 1.7-2 10.9h-6.4l1.8-10v-1c0-1.5-1-2.4-2.5-2.4-1.4 0-2.5.8-2.8 2.6L89 25.7h-6.5L87.1 0h6.5zM75.4 6.3c3.1 0 5.6 1.2 7.4 3.3l-3.6 3.6a5.3 5.3 0 0 0-3.7-1.9c-.7 0-1 .3-1 .8s.3.7 1 1l1.7.6c3 1.2 5 2.8 5 5.5s-2 6.5-7.6 6.5a9.6 9.6 0 0 1-8.5-4.3L70 18c1.4 1.6 2.8 2.8 4.7 2.8.8 0 1.6-.3 1.6-.9 0-.4-.4-.7-1-1l-1.8-.6c-3-1.2-5-2.8-5-5.9 0-3.7 3-6 7-6zm61.3 5.8a4 4 0 0 0-4 4c0 2.3 1.5 3.8 3.6 3.8 2.2 0 3.9-1.9 3.9-4.2 0-2.2-1.4-3.6-3.5-3.6zm-22 0c-2.2 0-3.9 1.8-4 4.2 0 2.1 1.5 3.6 3.5 3.6a4 4 0 0 0 3.9-4c0-2.3-1.5-3.8-3.4-3.8z" clip-rule="evenodd"/></svg>
